IKResults
version=1
nRows=7
nColumns=63
inDegrees=yes

Units are S.I. units (second, meters, Newtons, ...)
If the header above contains a line with 'inDegrees', this indicates whether rotational values are in degrees (yes) or radians (no).

endheader
time	pelvis_tilt	pelvis_list	pelvis_rotation	pelvis_tx	pelvis_ty	pelvis_tz	hip_flexion_r	hip_adduction_r	hip_rotation_r	knee_angle_r	knee_angle_r_beta	ankle_angle_r	subtalar_angle_r	mtp_angle_r	hip_flexion_l	hip_adduction_l	hip_rotation_l	knee_angle_l	knee_angle_l_beta	ankle_angle_l	subtalar_angle_l	mtp_angle_l	L5_S1_Flex_Ext	L5_S1_Lat_Bending	L5_S1_axial_rotation	L4_L5_Flex_Ext	L4_L5_Lat_Bending	L4_L5_axial_rotation	L3_L4_Flex_Ext	L3_L4_Lat_Bending	L3_L4_axial_rotation	L2_L3_Flex_Ext	L2_L3_Lat_Bending	L2_L3_axial_rotation	L1_L2_Flex_Ext	L1_L2_Lat_Bending	L1_L2_axial_rotation	L1_T12_Flex_Ext	L1_T12_Lat_Bending	L1_T12_axial_rotation	Abs_r3	Abs_r2	Abs_r1	Abs_t1	Abs_t2	neck_flexion	neck_bending	neck_rotation	arm_flex_r	arm_add_r	arm_rot_r	elbow_flex_r	pro_sup_r	wrist_flex_r	wrist_dev_r	arm_flex_l	arm_add_l	arm_rot_l	elbow_flex_l	pro_sup_l	wrist_flex_l	wrist_dev_l
      6.03333333	    -30.52117846	     -1.35623885	      2.96118809	     -0.50411753	      0.93876076	     -0.30261353	     31.14646683	     -1.19988245	     -0.49882728	     20.95168848	      0.36567595	     17.30932220	     -7.47483061	      0.00000000	     39.65281685	     -4.55867869	     -1.07825405	     43.10840786	      0.75238365	     16.46189730	    -16.85758141	      0.00000000	      5.25019083	     -0.09744527	     -0.74936992	      9.75012939	     -0.12960221	     -0.79620554	      8.62553851	     -0.23692842	     -0.79620554	      6.00044310	     -0.23692842	     -0.65569868	      4.87532720	     -0.19871039	     -0.60886306	      2.99995904	     -0.15094272	     -0.56202744	     37.50158807	     -1.10232036	     -4.16777066	      0.00000000	      0.00000000	     -9.96774784	     -0.78757944	     -3.75334781	    -37.67876233	    -17.06835921	      5.09757466	     64.03184850	     89.99559364	      0.00000000	      0.00000000	    -26.07798137	    -18.84125452	      1.08166136	     93.43396843	     89.99559364	      0.00000000	      0.00000000
      6.06666667	    -31.73086749	      0.19462326	      3.65960560	     -0.50439767	      0.93554517	     -0.29807120	     31.68544320	     -2.70931940	     -0.88307982	     19.79104325	      0.34541887	     17.56313153	     -6.71268272	      0.00000000	     44.96846155	     -3.03212414	     -0.49108232	     49.25340026	      0.85963400	     17.11495875	    -17.30706675	      0.00000000	      5.41586030	     -0.37207564	     -0.47375794	     10.05779416	     -0.49486060	     -0.50336781	      8.89771689	     -0.90466471	     -0.50336781	      6.18978674	     -0.90466471	     -0.41453820	      5.02916787	     -0.75873665	     -0.38492833	      3.09462257	     -0.57634517	     -0.35531846	     38.68494853	     -4.20899406	     -2.63489954	      0.00000000	      0.00000000	    -10.34207378	      1.40071590	     -6.10526311	    -35.07675552	    -15.39525030	      5.43209390	     68.04135004	     89.99559364	      0.00000000	      0.00000000	    -31.54781493	    -19.63684986	     -0.06415803	     91.79423741	     89.99559364	      0.00000000	      0.00000000
      6.10000000	    -32.21959273	      1.45872042	      3.98258314	     -0.50634173	      0.93361764	     -0.29412742	     31.95059616	     -3.78001897	     -0.75470192	     19.18625106	      0.33486325	     17.59474087	     -6.46866856	      0.00000000	     49.38271962	     -2.04004612	     -0.35745386	     54.82672500	      0.95690687	     17.51004907	    -17.57539141	      0.00000000	      5.41808146	     -0.59980141	     -0.11869804	     10.06191908	     -0.79773587	     -0.12611666	      8.90136603	     -1.45835714	     -0.12611666	      6.19232530	     -1.45835714	     -0.10386078	      5.03123045	     -1.22311503	     -0.09644215	      3.09589175	     -0.92909238	     -0.08902353	     38.70081407	     -6.78507346	     -0.66016286	      0.00000000	      0.00000000	    -10.22669543	      3.71070457	     -8.63617816	    -32.15393947	    -13.71300184	      5.18932739	     71.91656899	     89.99559364	      0.00000000	      0.00000000	    -36.12328230	    -20.36615385	     -1.28256621	     89.26540322	     89.99559364	      0.00000000	      0.00000000
      6.13333333	    -33.68812982	      2.66000988	      4.18589009	     -0.50835815	      0.93179622	     -0.29136887	     33.32070796	     -4.87386164	     -0.35291322	     18.59249967	      0.32450034	     17.19497913	     -6.10213613	      0.00000000	     53.91808455	     -1.22226917	     -0.80021444	     58.79723404	      1.02620533	     17.26295304	    -17.69953345	      0.00000000	      5.60459331	     -0.82106470	      0.27652033	     10.40829024	     -1.09201605	      0.29380285	      9.20778635	     -1.99633672	      0.29380285	      6.40548969	     -1.99633672	      0.24195529	      5.20442535	     -1.67431514	      0.22467277	      3.20246462	     -1.27182922	      0.20739025	     40.03304955	     -9.28804813	      1.53792314	      0.00000000	      0.00000000	    -10.41574047	      5.51703110	    -11.34101799	    -30.05149813	    -12.06472471	      4.46965062	     75.77923320	     89.99559364	      0.00000000	      0.00000000	    -40.88553558	    -21.16415245	     -2.78913797	     86.77525975	     89.99559364	      0.00000000	      0.00000000
      6.16666667	    -33.82275818	      3.31217203	      4.26696962	     -0.51118821	      0.93207172	     -0.28969028	     33.46016583	     -5.40714567	     -0.00377708	     18.06425030	      0.31528064	     16.73411594	     -5.95167207	      0.00000000	     56.41784570	     -0.87844734	     -0.92512713	     61.58066828	      1.07478542	     16.94452896	    -17.65412867	      0.00000000	      5.54216076	     -0.95825830	      0.61849999	     10.29234674	     -1.27448353	      0.65715624	      9.10521590	     -2.32990922	      0.65715624	      6.33413553	     -2.32990922	      0.54118749	      5.14645048	     -1.95408032	      0.50253124	      3.16679066	     -1.48434210	      0.46387499	     39.58710006	    -10.84000950	      3.43991138	      0.00000000	      0.00000000	    -10.17100303	      7.19671596	    -13.50286337	    -27.56373665	    -10.79213586	      3.65779504	     79.01928762	     89.99559364	      0.00000000	      0.00000000	    -44.19293342	    -21.78109292	     -4.09965509	     83.71319168	     89.99559364	      0.00000000	      0.00000000
      6.20000000	    -34.60294897	      4.04796818	      3.96270741	     -0.51381529	      0.93246851	     -0.28843510	     34.44350199	     -5.84277232	      1.11088076	     17.66476208	      0.30830826	     15.95858223	     -6.12863230	      0.00000000	     58.25171077	     -0.83382112	     -1.68304341	     62.51232880	      1.09104596	     16.44267158	    -17.47208038	      0.00000000	      5.60946405	     -1.09741621	      1.02610724	     10.41733568	     -1.45956356	      1.09023894	      9.21578848	     -2.66825777	      1.09023894	      6.41105646	     -2.66825777	      0.89784383	      5.20894831	     -2.23785113	      0.83371213	      3.20524776	     -1.69989771	      0.76958043	     40.06784074	    -12.41419162	      5.70690062	      0.00000000	      0.00000000	    -10.06478016	      8.38496077	    -16.34655318	    -25.91565473	     -9.41923066	      2.47668501	     81.71910904	     89.99559364	      0.00000000	      0.00000000	    -47.42194279	    -22.70315330	     -5.40016040	     81.70162556	     89.99559364	      0.00000000	      0.00000000
      6.23333333	    -34.71476648	      4.03676141	      3.91677567	     -0.51625639	      0.93408420	     -0.28907424	     34.65894209	     -5.85246392	      1.52827580	     17.20804653	      0.30033707	     15.22734988	     -6.12098738	      0.00000000	     58.41071263	     -0.91052381	     -1.75017297	     61.96706341	      1.08152928	     15.79818121	    -17.11908605	      0.00000000	      5.58064172	     -1.13137014	      1.24495165	     10.36380974	     -1.50472229	      1.32276113	      9.16843629	     -2.75081337	      1.32276113	      6.37811543	     -2.75081337	      1.08933270	      5.18218390	     -2.30709000	      1.01152322	      3.18877868	     -1.75249235	      0.93371374	     39.86196576	    -12.79828535	      6.92404762	      0.00000000	      0.00000000	    -10.06659776	      9.06891025	    -17.73351020	    -24.47714062	     -8.75021464	      1.70089862	     83.77569690	     89.99559364	      0.00000000	      0.00000000	    -49.54595759	    -23.15441517	     -6.20765056	     79.42777246	     89.99559364	      0.00000000	      0.00000000
